# xmcd
#
# Track frame offsets:
#	150
#	19870
#	43209
#	65061
#	90886
#	111538
#	140415
#
# Disc length: 2128 seconds
#
# Revision: 8
# Processed by: cddbd v1.5.1PL0 Copyright (c) Steve Scherf et al.
# Submitted via: CDex 1.50Beta5
#
DISCID=60084e07
DTITLE=夏川りみ - 南風
DYEAR=2002
DGENRE=World
TTITLE0=涙そうそう
TTITLE1=童神
TTITLE2=黄金の花
TTITLE3=イラヨイ月夜浜
TTITLE4=てぃんさぐぬ花
TTITLE5=花
TTITLE6=涙そうそう（ウチナーグチ・バージョン）
EXTD=
EXTT0=
EXTT1=
EXTT2=
EXTT3=
EXTT4=
EXTT5=
EXTT6=
PLAYORDER=
